<svg xmlns="http://www.w3.org/2000/svg" xmlns:xlink="http://www.w3.org/1999/xlink" viewBox="0 0 25.71 9.93"><defs><style>.cls-1{isolation:isolate;}.cls-2{fill:#1d97db;}.cls-2,.cls-3,.cls-4,.cls-5{fill-rule:evenodd;}.cls-3,.cls-5{mix-blend-mode:multiply;}.cls-3{fill:url(#linear-gradient);}.cls-4{fill:#141515;}.cls-5{fill:url(#linear-gradient-2);}</style><linearGradient id="linear-gradient" x1="0.35" y1="4.65" x2="6.28" y2="7.66" gradientUnits="userSpaceOnUse"><stop offset="0.28" stop-color="#fff"/><stop offset="0.34" stop-color="#f4f4f4"/><stop offset="0.45" stop-color="#d8d8d8"/><stop offset="0.59" stop-color="#aaa"/><stop offset="0.75" stop-color="#6a6a6a"/><stop offset="0.94" stop-color="#1a1a1a"/><stop offset="1"/></linearGradient><linearGradient id="linear-gradient-2" x1="6.97" y1="4.01" x2="13.44" y2="7.57" xlink:href="#linear-gradient"/></defs><g class="cls-1"><g id="Camada_2" data-name="Camada 2"><g id="Layer_1" data-name="Layer 1"><path class="cls-2" d="M6.27,9.05l.2,0L6.34,8.9ZM.63,2.62,0,5l.9-.35L2.15,6.38,3.74,8.64l.75-2.08-.28-.35L2.48,4l.62-.23Z"/><path class="cls-3" d="M6.27,9.05l.2,0L6.34,8.9ZM.63,2.62,0,5l.9-.35L2.15,6.38,3.74,8.64l.75-2.08-.28-.35L2.48,4l.62-.23Z"/><path class="cls-4" d="M3.89,8.85l2.58.22c.42-.91.86-1.89,1.33-2.94L7.64,5.9,5.84,3.39l-1,2.77-1,2.69Zm5.63-6.5.18-.41-.44.12Z"/><path class="cls-2" d="M16.25,9.92h.23l-.12-.13Zm-3.42-4.3-.11-.11-3-3.57L6,2.91l4.3,6.51,2.34-3.54Z"/><path class="cls-5" d="M16.25,9.92h.23l-.12-.13Zm-3.42-4.3-.11-.11-3-3.57L6,2.91l4.3,6.51,2.34-3.54Z"/><path class="cls-4" d="M16.66,9.91c1.38-1.5,2.91-3.19,4.67-5.12L25.71,0H17.12c-1.38,2-2.58,3.82-3.66,5.45l-3,4.46Z"/></g></g></g></svg>