<svg xmlns="http://www.w3.org/2000/svg" viewBox="0 0 25.71 9.93"><defs><style>.cls-1{fill:#1d97db;}.cls-1,.cls-2{fill-rule:evenodd;}.cls-2{fill:#141515;}</style></defs><g id="Camada_2" data-name="Camada 2"><g id="Layer_1" data-name="Layer 1"><path class="cls-1" d="M6.27,9.05l.2,0L6.34,8.9ZM.63,2.62,0,5l.9-.35L2.15,6.38,3.74,8.64l.75-2.08-.28-.35L2.48,4l.62-.23Z"/><path class="cls-2" d="M3.89,8.85l2.58.22c.42-.91.86-1.89,1.33-2.94L7.64,5.9,5.84,3.39l-1,2.77-1,2.69Zm5.63-6.5.18-.41-.44.12Z"/><path class="cls-1" d="M16.25,9.92h.23l-.12-.13Zm-3.42-4.3-.11-.11-3-3.57L6,2.91l4.3,6.51,2.34-3.54Z"/><path class="cls-2" d="M16.66,9.91c1.38-1.5,2.91-3.19,4.67-5.12L25.71,0H17.12c-1.38,2-2.58,3.82-3.66,5.45l-3,4.46Z"/></g></g></svg>