<svg xmlns="http://www.w3.org/2000/svg" xmlns:xlink="http://www.w3.org/1999/xlink" viewBox="0 0 35.13 12.32"><defs><style>.cls-1{isolation:isolate;}.cls-2,.cls-3,.cls-4{opacity:0.89;}.cls-2,.cls-3,.cls-4,.cls-6,.cls-8{mix-blend-mode:multiply;}.cls-2{fill:url(#radial-gradient);}.cls-3{fill:url(#radial-gradient-2);}.cls-4{fill:url(#radial-gradient-3);}.cls-5{fill:#1d97db;}.cls-5,.cls-6,.cls-7,.cls-8{fill-rule:evenodd;}.cls-6{fill:url(#linear-gradient);}.cls-7{fill:#141515;}.cls-8{fill:url(#linear-gradient-2);}</style><radialGradient id="radial-gradient" cx="23.28" cy="4.65" r="7.93" gradientTransform="matrix(1.28, 0.02, 0, 0.3, -5.33, 7.63)" gradientUnits="userSpaceOnUse"><stop offset="0"/><stop offset="0" stop-color="#020202"/><stop offset="0.13" stop-color="#3d3d3d"/><stop offset="0.25" stop-color="#717171"/><stop offset="0.37" stop-color="#9c9c9c"/><stop offset="0.5" stop-color="silver"/><stop offset="0.62" stop-color="#dcdcdc"/><stop offset="0.75" stop-color="#efefef"/><stop offset="0.87" stop-color="#fbfbfb"/><stop offset="1" stop-color="#fff"/></radialGradient><radialGradient id="radial-gradient-2" cx="-80.54" cy="10.04" r="7.93" gradientTransform="matrix(-0.9, 0.02, 0, 0.3, -60.02, 8.27)" xlink:href="#radial-gradient"/><radialGradient id="radial-gradient-3" cx="-78.03" cy="7.86" r="7.93" gradientTransform="matrix(-0.95, 0.02, 0, 0.3, -66.21, 7.96)" xlink:href="#radial-gradient"/><linearGradient id="linear-gradient" x1="5.95" y1="4.65" x2="11.88" y2="7.66" gradientUnits="userSpaceOnUse"><stop offset="0.28" stop-color="#fff"/><stop offset="0.34" stop-color="#f4f4f4"/><stop offset="0.45" stop-color="#d8d8d8"/><stop offset="0.59" stop-color="#aaa"/><stop offset="0.75" stop-color="#6a6a6a"/><stop offset="0.94" stop-color="#1a1a1a"/><stop offset="1"/></linearGradient><linearGradient id="linear-gradient-2" x1="12.57" y1="4.01" x2="19.04" y2="7.57" xlink:href="#linear-gradient"/></defs><g class="cls-1"><g id="Camada_2" data-name="Camada 2"><g id="Layer_1" data-name="Layer 1"><path class="cls-2" d="M35.13,9.73C35.12,11,30.56,12.05,25,12S14.81,10.8,14.82,9.49,19.39,7.17,25,7.23,35.14,8.42,35.13,9.73Z"/><path class="cls-3" d="M5.06,10.09c0,1.31,3.2,2.3,7.15,2.22s7.14-1.22,7.14-2.53-3.21-2.31-7.16-2.22S5.05,8.78,5.06,10.09Z"/><path class="cls-4" d="M0,9.22c0,1.31,3.38,2.31,7.54,2.22s7.53-1.21,7.53-2.52S11.68,6.61,7.52,6.69,0,7.91,0,9.22Z"/><path class="cls-5" d="M11.87,9.05l.2,0-.13-.17ZM6.23,2.62,5.6,5l.9-.35L7.75,6.38,9.34,8.64l.75-2.08-.28-.35L8.08,4l.61-.23Z"/><path class="cls-6" d="M11.87,9.05l.2,0-.13-.17ZM6.23,2.62,5.6,5l.9-.35L7.75,6.38,9.34,8.64l.75-2.08-.28-.35L8.08,4l.61-.23Z"/><path class="cls-7" d="M9.49,8.85l2.58.22c.42-.91.86-1.89,1.33-2.94l-.16-.23-1.8-2.51-1,2.77-1,2.69Zm5.63-6.5.17-.41-.43.12Z"/><path class="cls-5" d="M21.85,9.92h.23L22,9.8Zm-3.42-4.3-.11-.11-3-3.57-3.68,1,4.3,6.51,2.34-3.54Z"/><path class="cls-8" d="M21.85,9.92h.23L22,9.8Zm-3.42-4.3-.11-.11-3-3.57-3.68,1,4.3,6.51,2.34-3.54Z"/><path class="cls-7" d="M22.26,9.91c1.38-1.5,2.91-3.19,4.66-5.12,1.33-1.44,2.78-3,4.39-4.79H22.72c-1.38,2-2.58,3.82-3.66,5.45l-3,4.46Z"/></g></g></g></svg>